<svg xmlns="http://www.w3.org/2000/svg" viewBox="0 0 251.4 310.03"><style>:root { color: #000000; } @media (prefers-color-scheme: dark) { :root { color: #ffffff; } }</style><g id="Layer_2" data-name="Layer 2"><g id="Layer_1-2" data-name="Layer 1"><path fill="currentColor" d="M225.4,59.54v122.1a31.84,31.84,0,0,0-7.48-.88h-.34l-96.14.88,104-122.1M244.87,0A6.34,6.34,0,0,0,240,2.29L73.91,197.35A6.48,6.48,0,0,0,78.84,208h.06l139-1.27h.06a6.49,6.49,0,0,1,6.48,6.39l1.18,90.48a6.47,6.47,0,0,0,6.47,6.4h12.87a6.48,6.48,0,0,0,6.48-6.48V6.49A6.47,6.47,0,0,0,244.87,0Z"/><path fill="currentColor" d="M56.12,246l25-.25a6.28,6.28,0,0,1,4.67,10.53L43.62,302A6.29,6.29,0,0,1,39,304H6.29a6.28,6.28,0,0,1-4.48-10.68L42.7,251.73A19.09,19.09,0,0,1,56.12,246Z"/></g></g></svg>