<svg xmlns="http://www.w3.org/2000/svg" viewBox="0 0 559.16 533"><g id="Layer_2" data-name="Layer 2"><g id="Layer_1-2" data-name="Layer 1"><path d="M389.32,73.74V225a42.63,42.63,0,0,0-9.58-1.09h-.45L256.06,225,389.32,73.74M414.28,0A8.22,8.22,0,0,0,408,2.84L195.14,244.42c-4.6,5.22-.75,13.23,6.31,13.23h.08l178.13-1.56h.08A8.16,8.16,0,0,1,388,264l1.51,112.07a8.16,8.16,0,0,0,8.3,7.91h16.5a8.17,8.17,0,0,0,8.3-8V8a8.15,8.15,0,0,0-8.37-8Z" style="fill:#f2f2f2"/><path d="M172.33,304.71l32-.3c7.05-.07,10.77,8,6,13l-54,56.59a8.19,8.19,0,0,1-5.91,2.5H108.45c-7.13,0-10.73-8.3-5.74-13.22l52.41-51.54A24.86,24.86,0,0,1,172.33,304.71Z" style="fill:#f2f2f2"/><rect x="5.26" y="429.9" width="548.64" height="97.84" rx="12" style="fill:none"/><path d="M522.34,429.9a31.65,31.65,0,0,1,31.56,31.56v34.73a31.65,31.65,0,0,1-31.56,31.56H36.81A31.65,31.65,0,0,1,5.26,496.19V461.46A31.65,31.65,0,0,1,36.81,429.9H522.34m0-5.26H36.81A36.86,36.86,0,0,0,0,461.46v34.73A36.85,36.85,0,0,0,36.81,533H522.34a36.86,36.86,0,0,0,36.82-36.81V461.46a36.87,36.87,0,0,0-36.82-36.82Z" style="fill:#f2f2f2"/><path d="M28.1,495.63A3.87,3.87,0,0,1,31.61,498a16.47,16.47,0,0,0,3.13,4.44,10.2,10.2,0,0,0,4.2,1.83,28.1,28.1,0,0,0,6.69.7,30.4,30.4,0,0,0,15.86-4.22q7.08-4.23,7.08-10.54,0-4.44-4.92-7.19c-3.27-1.82-7.66-2.83-13.16-3q-7.79-.39-12.19-3.29a9,9,0,0,1-4.39-7.86q0-8.36,10.34-15.24t20.22-6.88a35.93,35.93,0,0,1,10.65,1.7c3.65,1.14,5.48,2.54,5.48,4.23a4.26,4.26,0,0,1-1.11,2.7,4.36,4.36,0,0,1-3.58,1.35,32.75,32.75,0,0,1-6.13-.87,32.82,32.82,0,0,0-6.22-1,24,24,0,0,0-13.9,3.87Q44,462.67,44,467c0,1.63,1,2.84,3.08,3.64s6.15,1.46,12.28,2q8.84.62,13.75,4.94A13.67,13.67,0,0,1,78,488.23Q78,498.72,68,505.9t-23.73,7.19a32.62,32.62,0,0,1-15.12-3.29q-6.37-3.29-6.38-8.69a5,5,0,0,1,1.65-4.17A5.79,5.79,0,0,1,28.1,495.63Z" style="fill:#f2f2f2"/><path d="M87.18,490.58q0-8.28,4.91-18.86a53.32,53.32,0,0,1,15-18.85q10.14-8.26,22.17-8.27,25.6,0,25.6,20.59,0,16.95-12.14,32.51T114,513.26q-11.94,0-19.38-6.46A20.62,20.62,0,0,1,87.18,490.58ZM96.46,489a13.54,13.54,0,0,0,5.32,11.1c3.54,2.85,8.1,4.27,13.65,4.27q12,0,21-12.3t9.1-25.45q0-7.39-4.35-10.25t-13.4-2.86q-12.17,0-21.77,12.15T96.46,489Z" style="fill:#f2f2f2"/><path d="M180.24,452.74l-3.16,18.81q9.1-2.22,13.48-2.22,4.14,0,10.25.39t6.81,1.5a4.36,4.36,0,0,1,.69,2.33,5.38,5.38,0,0,1-1.53,3.92A5,5,0,0,1,203,479c-2.13,0-4.48-.12-7-.35s-4.76-.35-6.89-.35-6.82.83-13.79,2.48l-5.23,30a5.44,5.44,0,0,1-5.27,4.44,3.56,3.56,0,0,1-3.83-3.7q0-1.08,1.89-11.45l5.36-29.61q2.12-11.76,2.84-16.94c.15-1.3.32-2.43.5-3.39l.36-2.4a5.62,5.62,0,0,1,1.78-3.24,4.92,4.92,0,0,1,3.44-1.29,4.08,4.08,0,0,1,2.53.79,108.83,108.83,0,0,1,18.16-1.87,51.62,51.62,0,0,1,13,1.78q6.83,1.78,6.82,4.49a5,5,0,0,1-1.53,3.31,4.82,4.82,0,0,1-3.65,1.65,3.83,3.83,0,0,1-1.67-.35q-5.17-2-14.51-2A102.82,102.82,0,0,0,180.24,452.74Z" style="fill:#f2f2f2"/><path d="M275.6,454.7h-2.17q-4.59,0-8.11-.17l-3.6-.09h-5.05a14.39,14.39,0,0,0-1.67.09l-3.15.08c-.18,2-.5,4.63-.95,7.88s-.9,7.13-1.26,11.63q-1.17,13.75-2.21,19.64l-.45,4.61Q246.26,511,240.31,511a4.26,4.26,0,0,1-2.82-1,3.26,3.26,0,0,1-1.24-2.57,11,11,0,0,1,.64-2.74,54.66,54.66,0,0,0,1.3-8.27c.36-3.31.62-5.48.77-6.49q.94-5.44,1.8-17.51.5-6.09,1-10.36l.81-6.83-6.45.17a47.1,47.1,0,0,1-12-.7c-2.81-.66-4.21-1.83-4.21-3.48a5.61,5.61,0,0,1,1.53-4,4.94,4.94,0,0,1,3.7-1.61c.51,0,1.37.05,2.57.13,5.16.47,8.62.7,10.36.7q4.83,0,12.4-.52,4.45-.31,7.75-.31,3.06,0,8.11.18l6,.08c1.29,0,2.65,0,4.06,0a5,5,0,0,1,3.22.83,3,3,0,0,1,1.1,2.48,6,6,0,0,1-1.42,3.9A4.56,4.56,0,0,1,275.6,454.7Z" style="fill:#f2f2f2"/><path d="M386.46,510.43a37.86,37.86,0,0,1-1.31-8.57q0-5.76-.45-18.82-.68-14.31-.31-21.2-6,13.71-16.5,33.35-3.69,6.84-5.63,11.5a3.54,3.54,0,0,1,.31,1.48,4.14,4.14,0,0,1-2,3.42,7.3,7.3,0,0,1-4.33,1.41q-6.12,0-5.18-5.27l-.54-5.53-1.4-21.29q-.45-6.62-4.95-31a4.93,4.93,0,0,1,.72-3.76q1.17-2,4.59-2a4.17,4.17,0,0,1,3.16,1.4q1.3,1.4,2.64,9.77t2.27,20l1.53,20.08q6.27-10.41,14.6-27.91,6-13,9.18-17.46t5.88-4.49a3.64,3.64,0,0,1,3.67,2q.92,2,.92,9.6,0,3.87-.27,9.23-.09,3.7.27,17.2l.63,17.94L409,475.08l7-12.85q.72-1.35,3.33-7.7,4.2-10.36,9-10.37,4,0,4,3.27,0,1.4-2.21,5.48l-2.57,4.71-3.78,7.79L405.25,496.8l-5,8.8q-3.24,5.61-4.1,6.75a6.18,6.18,0,0,1-5,2.44,5.22,5.22,0,0,1-3.69-1.29A3,3,0,0,1,386.46,510.43Z" style="fill:#f2f2f2"/><path d="M508.72,490.19q-6.59-10.11-7.93-15.9A56.05,56.05,0,0,0,496,462.54q-2.45-4.62-4.28-8.32c-1.24-2.47-1.85-4.08-1.85-4.83a4.69,4.69,0,0,1,1.69-3.46,5.31,5.31,0,0,1,3.72-1.59,3.84,3.84,0,0,1,3.38,2l2.79,5.45q4.63,9,6.08,12.32a38.38,38.38,0,0,1,2.3,7q.81,3.31,4.73,9.8l14.29-24.25,4.82-7.05a22.54,22.54,0,0,1,3.49-4.42,4.52,4.52,0,0,1,2.78-.77,4,4,0,0,1,2.81,1.07,3.4,3.4,0,0,1,1.15,2.59q0,2.06-5.09,8.93c-.63.87-1.34,1.88-2.12,3.05L526,478.52q-3.91,6.78-11.54,18.2l-7.21,9.71-3.15,4.7a5.15,5.15,0,0,1-4.42,2.52,3.94,3.94,0,0,1-2.81-1.08A3.43,3.43,0,0,1,495.7,510q0-1.74,5.72-10Z" style="fill:#f2f2f2"/><path d="M468,460.08v20.34h-.15l-15.9.16L468,460.08m5-15.85a1.32,1.32,0,0,0-1.06.52l-31.36,40a1.3,1.3,0,0,0,1.08,2.09h0l26.2-.26h0a1.33,1.33,0,0,1,1.35,1.3l.23,18.73a1.33,1.33,0,0,0,1.35,1.29h2.2a1.34,1.34,0,0,0,1.35-1.31V445.54a1.33,1.33,0,0,0-1.37-1.31Z" style="fill:#f2f2f2"/><path d="M314.19,460.08v20.34H314l-15.91.16,16.06-20.5m5-15.85a1.35,1.35,0,0,0-1.07.52l-31.35,40a1.3,1.3,0,0,0,1.08,2.09h0l26.2-.26h0a1.33,1.33,0,0,1,1.35,1.3l.22,18.73a1.34,1.34,0,0,0,1.36,1.29h2.19a1.34,1.34,0,0,0,1.36-1.31V445.54a1.33,1.33,0,0,0-1.37-1.31Z" style="fill:#f2f2f2"/><path d="M432.36,495.54l5.85-.05a1.27,1.27,0,0,1,1,2.13l-8.27,8.66a1.35,1.35,0,0,1-1,.41h-6.33a1.27,1.27,0,0,1-.94-2.16l8.76-8.61A1.34,1.34,0,0,1,432.36,495.54Z" style="fill:#f2f2f2"/></g></g></svg>