<svg xmlns="http://www.w3.org/2000/svg" viewBox="0 0 559.16 537.65"><g id="Layer_2" data-name="Layer 2"><g id="Layer_1-2" data-name="Layer 1"><path d="M389.32,73.74V225a42.63,42.63,0,0,0-9.58-1.09h-.45L256.06,225,389.32,73.74M414.28,0A8.22,8.22,0,0,0,408,2.84L195.14,244.42c-4.6,5.22-.75,13.23,6.31,13.23h.08l178.13-1.56h.08A8.16,8.16,0,0,1,388,264l1.51,112.07a8.16,8.16,0,0,0,8.3,7.91h16.5a8.17,8.17,0,0,0,8.3-8V8a8.15,8.15,0,0,0-8.37-8Z" style="fill:#f2f2f2"/><path d="M172.33,304.71l32-.3c7.05-.07,10.77,8,6,13l-54,56.59a8.19,8.19,0,0,1-5.91,2.5H108.45c-7.13,0-10.73-8.3-5.74-13.22l52.41-51.54A24.86,24.86,0,0,1,172.33,304.71Z" style="fill:#f2f2f2"/><rect x="5.26" y="429.9" width="548.64" height="97.84" rx="12" style="fill:none"/><path d="M522.34,429.9a31.65,31.65,0,0,1,31.56,31.56v34.73a31.65,31.65,0,0,1-31.56,31.56H36.81A31.65,31.65,0,0,1,5.26,496.19V461.46A31.65,31.65,0,0,1,36.81,429.9H522.34m0-5.26H36.81A36.86,36.86,0,0,0,0,461.46v34.73A36.85,36.85,0,0,0,36.81,533H522.34a36.86,36.86,0,0,0,36.82-36.81V461.46a36.87,36.87,0,0,0-36.82-36.82Z" style="fill:#f2f2f2"/><text transform="translate(15.93 510.61) scale(1.04 1)" style="font-size:89.17305755615234px;fill:#f2f2f2;font-family:ComicSansMS-Italic, Comic Sans MS;font-style:italic"><tspan xml:space="preserve">SOFT  W  Y</tspan></text><path d="M468,460.08v20.34h-.15l-15.9.16L468,460.08m5-15.85a1.32,1.32,0,0,0-1.06.52l-31.36,40a1.3,1.3,0,0,0,1.08,2.09h0l26.2-.26h0a1.33,1.33,0,0,1,1.35,1.3l.23,18.73a1.33,1.33,0,0,0,1.35,1.29h2.2a1.34,1.34,0,0,0,1.35-1.31V445.54a1.33,1.33,0,0,0-1.37-1.31Z" style="fill:#f2f2f2"/><path d="M314.19,460.08v20.34H314l-15.91.16,16.06-20.5m5-15.85a1.35,1.35,0,0,0-1.07.52l-31.35,40a1.3,1.3,0,0,0,1.08,2.09h0l26.2-.26h0a1.33,1.33,0,0,1,1.35,1.3l.22,18.73a1.34,1.34,0,0,0,1.36,1.29h2.19a1.34,1.34,0,0,0,1.36-1.31V445.54a1.33,1.33,0,0,0-1.37-1.31Z" style="fill:#f2f2f2"/><path d="M432.36,495.54l5.85-.05a1.27,1.27,0,0,1,1,2.13l-8.27,8.66a1.35,1.35,0,0,1-1,.41h-6.33a1.27,1.27,0,0,1-.94-2.16l8.76-8.61A1.34,1.34,0,0,1,432.36,495.54Z" style="fill:#f2f2f2"/></g></g></svg>